<?xml version="1.0" encoding="utf-8"?>
<!-- Generator: Adobe Illustrator 22.1.0, SVG Export Plug-In . SVG Version: 6.00 Build 0)  -->
<svg version="1.1" id="Layer_1" xmlns="http://www.w3.org/2000/svg" xmlns:xlink="http://www.w3.org/1999/xlink" x="0px" y="0px"
	 viewBox="0 0 50 50" style="enable-background:new 0 0 50 50;" xml:space="preserve">
<style type="text/css">
	.st0{fill:#FFFFFF;}
</style>
<g>
	<g>
		<g>
			<path class="st0" d="M32.6,30.9c-0.3-2.6,2-11.2,1.6-14.4c-0.2-1.7-1.1-2.2-2.3-2.1c-1.3,0.1-2.9,1.3-2.9,1.3s0.2,0.5,0.3,1.7
				c0,0.2,0,0.5,0,0.8c0,0,0,0,0,0.1c0,0.2,0,0.4,0,0.6c0,0,0,0.1,0,0.1c0,0,0,0.1,0,0.1C29,23,27.8,31.6,24.8,32.1
				c-0.6,0.1-0.9-0.3-1-1.2c-0.3-2.4,1.4-7.6,1.3-11.9c-0.1-4.7-3-6.1-6.2-5.6c-4.4,0.6-8.1,5.5-7,12c0.8,5,5.5,2.3,5.5,2.3
				s-1.1-1.1-1.1-3.9c0-3.4,0.9-7.8,3.3-7.8c1.2,0,1.4,1.6,1.4,2.2c0.1,4.2-2.2,8.7-1.6,13.9c0.3,2.3,1.7,5.1,4.5,4.7
				c2.4-0.3,3.8-2.7,4.5-4.8c0,0,0,0,0,0c0.2,2.8,1.5,5.4,3.8,5.3c2.5-0.1,3-2.8,3-2.8C32.6,33.1,32.6,31.4,32.6,30.9z M29.3,18.4
				C29.3,18.4,29.3,18.4,29.3,18.4L29.3,18.4z"/>
		</g>
	</g>
</g>
</svg>
