<svg id="Layer_1" data-name="Layer 1" xmlns="http://www.w3.org/2000/svg" viewBox="0 0 118.58 55"><title>Untitled-1</title><path d="M27.22,16.09a.3.3,0,0,0-.28-.26l-2.58-.2-1.91-1.89c-.18-.19-.55-.13-.69-.09l-1,.3c-.58-1.65-1.59-3.16-3.37-3.16h-.15a2.15,2.15,0,0,0-1.67-1c-4.14,0-6.12,5.18-6.74,7.81l-2.9.9c-.9.28-.93.31-1,1.16-.09.64-2.44,18.82-2.44,18.82L20.8,42l9.93-2.15S27.25,16.25,27.22,16.09Zm-7.44-1.83-1.55.48c0-.11,0-.21,0-.33a7.47,7.47,0,0,0-.38-2.5C18.78,12,19.39,13.06,19.78,14.26Zm-3.05-2.15a7.78,7.78,0,0,1,.42,2.79v.18l-3.2,1C14.56,13.69,15.72,12.54,16.73,12.11ZM15.5,10.94a.91.91,0,0,1,.53.18c-1.33.63-2.75,2.2-3.35,5.34l-2.53.79C10.85,14.85,12.52,10.94,15.5,10.94Z" style="fill:#95bf47"/><path d="M26.94,15.83l-2.58-.2-1.91-1.89a.48.48,0,0,0-.26-.12L20.81,42l9.92-2.15s-3.48-23.55-3.51-23.71A.3.3,0,0,0,26.94,15.83Z" style="fill:#5e8e3e"/><path d="M17.43,21.31,16.21,25a5.64,5.64,0,0,0-2.39-.57c-1.92,0-2,1.21-2,1.51,0,1.67,4.33,2.3,4.33,6.2,0,3.06-1.94,5-4.56,5a6.36,6.36,0,0,1-4.75-1.95l.84-2.79a6,6,0,0,0,3.05,1.42A1.22,1.22,0,0,0,12,32.56c0-2.17-3.56-2.26-3.56-5.83,0-3,2.16-5.9,6.5-5.9A5.3,5.3,0,0,1,17.43,21.31Z" style="fill:#fff"/><path id="s" d="M42.3,28.13c-1-.53-1.5-1-1.5-1.61,0-.79.71-1.3,1.81-1.3a6.39,6.39,0,0,1,2.43.54L46,23s-.83-.65-3.28-.65c-3.41,0-5.77,1.95-5.77,4.69,0,1.56,1.1,2.75,2.57,3.59,1.19.68,1.61,1.16,1.61,1.87s-.59,1.33-1.69,1.33a7.6,7.6,0,0,1-3.2-.85l-1,2.77a7.36,7.36,0,0,0,3.85,1c3.5,0,6-1.72,6-4.83C45.1,30.2,43.83,29,42.3,28.13Z"/><path id="h" d="M56.27,22.31a5.3,5.3,0,0,0-4.13,2.06l0,0,1.5-7.83H49.68L45.89,36.45H49.8l1.3-6.82c.51-2.57,1.83-4.15,3.08-4.15.88,0,1.22.59,1.22,1.44a9,9,0,0,1-.17,1.72l-1.48,7.81h3.91l1.53-8.06a15.59,15.59,0,0,0,.28-2.55C59.47,23.64,58.31,22.31,56.27,22.31Z"/><path id="o" d="M68.29,22.31c-4.69,0-7.8,4.24-7.8,9,0,3,1.86,5.46,5.37,5.46,4.61,0,7.72-4.13,7.72-9C73.58,25,71.94,22.31,68.29,22.31ZM66.37,33.73c-1.33,0-1.9-1.13-1.9-2.54,0-2.23,1.16-5.88,3.28-5.88,1.39,0,1.84,1.18,1.84,2.34C69.59,30.06,68.43,33.73,66.37,33.73Z"/><path id="p" d="M83.57,22.31a5.33,5.33,0,0,0-4.13,2.32h-.06l.23-2.1H76.16c-.17,1.42-.49,3.57-.8,5.18L72.65,42h3.9l1.08-5.77h.08a4.53,4.53,0,0,0,2.29.51c4.58,0,7.58-4.69,7.58-9.44C87.58,24.66,86.42,22.31,83.57,22.31ZM79.83,33.79a2.49,2.49,0,0,1-1.61-.56l.65-3.65c.45-2.44,1.73-4,3.08-4,1.19,0,1.56,1.11,1.56,2.15C83.51,30.2,82,33.79,79.83,33.79Z"/><path id="dot" d="M93.15,16.71A2.23,2.23,0,0,0,90.92,19a1.79,1.79,0,0,0,1.84,2h0a2.2,2.2,0,0,0,2.29-2.26A1.85,1.85,0,0,0,93.15,16.71Z"/><polygon id="i" points="87.69 36.45 91.6 36.45 94.26 22.62 90.33 22.62 87.69 36.45"/><path id="f" d="M104.18,22.59h-2.71l.14-.65c.23-1.33,1-2.52,2.32-2.52a4,4,0,0,1,1.24.2l.77-3.05a5.15,5.15,0,0,0-2.12-.34,5.75,5.75,0,0,0-3.82,1.3,7.46,7.46,0,0,0-2.27,4.41l-.11.65H95.81l-.56,2.94h1.81L95,36.45h3.9L101,25.53h2.69Z"/><path id="y" d="M113.57,22.62s-2.44,6.15-3.53,9.5H110c-.07-1.08-1-9.5-1-9.5h-4.1l2.35,12.7a.88.88,0,0,1-.09.65,6.65,6.65,0,0,1-2.12,2.35,8.9,8.9,0,0,1-2.21,1.1l1.08,3.31a9,9,0,0,0,3.82-2.12,26.56,26.56,0,0,0,5.12-7.75l4.78-10.24Z"/></svg>