<?xml version="1.0" encoding="utf-8"?>
<!-- Generator: Adobe Illustrator 22.1.0, SVG Export Plug-In . SVG Version: 6.00 Build 0)  -->
<svg version="1.1" id="Layer_1" xmlns="http://www.w3.org/2000/svg" xmlns:xlink="http://www.w3.org/1999/xlink" x="0px" y="0px"
	 viewBox="0 0 118.6 55" style="enable-background:new 0 0 118.6 55;" xml:space="preserve">
<style type="text/css">
	.st0{fill:#333060;}
	.st1{fill:#3593E0;}
</style>
<g id="g10">
	<g id="g16">
		<g id="g74">
			<path id="path76" class="st0" d="M26.5,8.7c0.3-0.3,0.4-0.6,0.4-1c0-0.4-0.1-0.7-0.4-1c-0.4-0.3-0.8-0.4-1.2-0.4h-1.5v2.7h1.5
				C25.7,9.1,26.1,9,26.5,8.7 M28.4,3.7C30,4.3,31,5.9,31,7.7c0,1.7-1,3.3-2.6,4c-0.9,0.4-1.9,0.6-2.9,0.6h-1.7v3h-4.1V3.1h5.8
				C26.5,3.1,27.5,3.2,28.4,3.7"/>
		</g>
		<g id="g78">
			<path id="path80" class="st0" d="M34,3.1h4.1V12h5.5v3.2H34V3.1z"/>
		</g>
		<g id="g82">
			<path id="path84" class="st0" d="M47.8,13.9c-1.1-1.1-1.6-2.7-1.5-4.2V3.1h4.1v6.5c-0.1,0.7,0.1,1.4,0.5,1.9
				c0.7,0.8,1.9,0.8,2.7,0.1c0,0,0.1-0.1,0.1-0.1C53.9,11,54,10.3,54,9.6V3.1h4v6.6c0.1,1.6-0.5,3.1-1.6,4.2
				c-1.2,1.1-2.7,1.6-4.3,1.5C50.5,15.5,49,15,47.8,13.9"/>
		</g>
		<g id="g86">
			<path id="path88" class="st0" d="M69.6,8.8h3.5v5.1c-0.8,0.5-1.6,0.9-2.5,1.1c-0.9,0.3-1.8,0.4-2.8,0.4c-1.2,0-2.4-0.3-3.5-0.8
				c-1-0.5-1.8-1.3-2.4-2.2c-0.6-1-0.9-2.1-0.9-3.3c0-1.2,0.3-2.3,0.9-3.3c0.6-1,1.4-1.7,2.4-2.2c1.1-0.6,2.3-0.8,3.5-0.8
				c1.1,0,2.2,0.2,3.2,0.6c0.9,0.4,1.7,1,2.3,1.7l-2.6,2.3c-0.7-0.8-1.7-1.3-2.7-1.3c-0.8,0-1.6,0.3-2.2,0.8
				c-0.6,0.6-0.8,1.4-0.8,2.2c0,0.8,0.2,1.6,0.8,2.2c0.5,0.6,1.3,0.9,2.1,0.8c0.5,0,1-0.1,1.5-0.3L69.6,8.8z"/>
		</g>
		<path id="path90" class="st0" d="M83.5,3.1h4.1v12.1h-4.1V3.1z"/>
		<g id="g92">
			<path id="path94" class="st0" d="M103.2,3.1v12.1h-3.3l-4.6-5.5v5.5h-4V3.1h3.4l4.6,5.5V3.1H103.2z"/>
		</g>
		<g id="g96">
			<path id="path98" class="st1" d="M74.5,30L74.5,30L74.5,30z M64.2,28.3c0.5-0.1,0.8,0.3,0.8,1c0,2.4-1.2,6.7-4.3,6.2
				C61.2,31.9,62.7,28.5,64.2,28.3 M27.9,27.3L27.9,27.3z M115.2,17c-0.2-2-0.9-3.3-3-3.1c-1.4,0.3-2.8,0.9-3.9,1.7
				c0.4,1.2,0.6,2.4,0.6,3.6c-0.2,3.9-1.5,9.7-2.1,14.7c-0.9,2.2-2.4,4.5-3.9,4.7c-0.9,0.1-1.1-0.8-1.2-1.4c-0.4-3.7,2.6-8.6,2-13.1
				c-0.3-2.4-1.4-3.1-3.1-2.9c-1.4,0.3-2.7,0.9-3.9,1.7c0.3,0.9,0.5,1.9,0.6,2.9c0.2,2-0.4,4.3-0.9,6.9l0,0L96.1,34
				c-0.6,2.3-2.6,5.9-4.6,6.1c-0.9,0.1-1.1-0.8-1.2-1.4c-0.3-3.1,2-6.1,2-11.2c0-4.2-4.8-5.1-8.4-4.5c-0.8,0.1-1.5,0.3-2.1,0.5v-0.1
				c0.2-4,2.8-5.4,4.7-5.4c0.6,0,1.2,0.2,1.8,0.4c1.7-1.7,1.1-4.7-4.1-4.6s-8.2,3.9-8.4,9.1c0,0.7-0.1,1.4-0.2,2.1
				c-1.3,0-2.5-0.2-3.7-0.6c0,0-1.4,6.3,2.5,5.8c-0.7,1.8-5.3,12.9-11,13.6c-2.2,0.2-2.8-1.8-3-4.1c3.9,0.9,8.9-3,9.4-9.3
				c0.3-3.8-2-6.3-5.9-5.8c-6.7,0.8-9.5,8.5-9.8,14c-0.6,1.3-1.3,2.4-2.1,3.5c-1.2-5.2-7.9-3.6-8.5-8.4c-0.3-1.3,0.6-2.5,1.8-2.7
				c0.1,0,0.1,0,0.2,0c2.4-0.1,0.7,3.8,0.7,3.8c0.7,1,1.9,1.6,3.2,1.4c2.2-0.3,2.5-3.1,2.4-4.3c-0.5-3.8-3.9-5.2-7.4-4.7
				c-4.8,0.7-7.6,4.8-7.2,8.2c0.7,6.2,8.1,3.5,8.2,9.4c0.1,1.2-0.7,2.2-1.8,2.3c-0.7,0-1.3-0.6-1.3-1.3c0,0,0,0,0-0.1
				c0-0.8,0.1-1.5,0.4-2.2c-0.7-1-1.9-1.5-3.1-1.5c-1.1,0.1-2,0.9-2.2,2c-0.5,0.7-2.1,3-3.7,3.2c-1,0.1-1.2-0.8-1.3-1.4
				c-0.4-3.7,3.2-16.1,2.6-20.6c-0.3-2.4-1.5-3.1-3.3-3c-1.5,0.3-3,1-4.2,1.9c0.3,0.8,0.4,1.7,0.5,2.5c0,0.3,0,0.7,0,1.2v0.1
				c0,0.3,0,0.6,0,0.9v0.2c0,0,0,0.1,0,0.1C27.5,34,25.7,46.3,21.5,47c-0.9,0.2-1.3-0.4-1.5-1.7c-0.4-3.4,2-10.9,1.9-17
				c-0.1-6.7-4.4-8.7-9-8.1C6.8,21.1,1.5,28.2,2.9,37.4c1.1,7.1,7.8,3.3,7.8,3.3s-1.6-1.6-1.6-5.5C9.1,30.3,10.5,24,13.9,24
				c1.7,0,2,2.3,2.1,3.1c0.1,6.1-3.2,12.5-2.4,19.9c0.4,3.3,2.4,7.4,6.5,6.8c3.5-0.5,5.4-3.8,6.4-6.9l0,0c0.4,4,2.2,5.7,5,5.4
				s4.9-2.6,6.1-4.9c0.9,2.3,3,3.7,6.1,3.4l0,0h0.2h0.2h0.1c5.2-0.7,8.8-4.3,10.8-7.2c1.3,3.2,4,5.7,7.9,4.9
				c4.7-0.9,7.9-4.9,9.8-8.1c0,1-0.1,2,0,3.2c0.1,2.4,1.8,3.1,3.6,3.1c1.1,0.1,2.2-0.1,3.1-0.6c0,0-0.3-1.9-0.3-3.2
				c-0.1-5.2,1.4-10.4,2.2-15.2c0.7-0.2,1.4-0.4,2.1-0.5c1.3-0.1,2.9,0.6,2.7,3.1c-0.2,3.5-1.9,6.1-1.6,10c0.3,3.4,2.2,5.7,5,5.4
				c2.9-0.3,5.2-2.7,6.6-5.1c0.7,2.8,2.4,4,4.7,3.8s4.4-2,5.6-4c0.2,2.1,1.8,2.6,3.4,2.4c1.1,0,2.2-0.3,3.1-0.8c0,0-0.2-1.9-0.2-3.2
				C112.6,26.7,115.8,22.9,115.2,17"/>
		</g>
	</g>
</g>
</svg>
