<svg id="Layer_1" data-name="Layer 1" xmlns="http://www.w3.org/2000/svg" viewBox="0 0 118.58 55"><title>Untitled-1</title><g id="g10"><g id="g16"><g id="g74"><path id="path76" d="M26.46,8.68a1.33,1.33,0,0,0,.42-1,1.33,1.33,0,0,0-.42-1,1.79,1.79,0,0,0-1.24-.37H23.74V9.05h1.48a1.79,1.79,0,0,0,1.24-.37m1.94-5a4.21,4.21,0,0,1,2.59,4,4.21,4.21,0,0,1-2.59,4,7.11,7.11,0,0,1-2.92.55H23.74v3H19.66V3.08h5.82a7.11,7.11,0,0,1,2.92.55" style="fill:#333060"/></g><g id="g78"><path id="path80" d="M34,3.08h4.07V12h5.46v3.16H34Z" style="fill:#333060"/></g><g id="g82"><path id="path84" d="M47.78,13.93a5.56,5.56,0,0,1-1.55-4.21V3.08H50.3V9.6a3.22,3.22,0,0,0,.47,1.94,1.88,1.88,0,0,0,2.75,0A3.22,3.22,0,0,0,54,9.6V3.08h4V9.72a5.56,5.56,0,0,1-1.56,4.21,5.93,5.93,0,0,1-4.33,1.51,6,6,0,0,1-4.33-1.51" style="fill:#333060"/></g><g id="g86"><path id="path88" d="M69.58,8.79h3.54V13.9A8.36,8.36,0,0,1,70.63,15a10.43,10.43,0,0,1-2.78.4,7.34,7.34,0,0,1-3.47-.81A6,6,0,0,1,62,12.39a6.11,6.11,0,0,1-.88-3.27A6.11,6.11,0,0,1,62,5.85a5.92,5.92,0,0,1,2.43-2.24,7.56,7.56,0,0,1,3.53-.81,8,8,0,0,1,3.18.6,6,6,0,0,1,2.34,1.73l-2.6,2.3A3.46,3.46,0,0,0,68.15,6.1,2.86,2.86,0,0,0,66,6.91a3,3,0,0,0-.8,2.21A3,3,0,0,0,66,11.31a2.75,2.75,0,0,0,2.09.83,4,4,0,0,0,1.49-.29Z" style="fill:#333060"/></g><path id="path90" d="M83.49,3.08h4.07V15.16H83.49Z" style="fill:#333060"/><g id="g92"><path id="path94" d="M103.16,3.08V15.16H99.82l-4.6-5.49v5.49h-4V3.08H94.6l4.59,5.49V3.08Z" style="fill:#333060"/></g><g id="g96"><path id="path98" d="M74.51,30V30h0Zm-10.36-1.7c.5-.08.8.34.82,1,0,2.43-1.19,6.66-4.3,6.18.55-3.55,2.07-7,3.48-7.22m-36.29-.95v0Zm87.37-10.32c-.21-2-.93-3.34-3-3.13a9.14,9.14,0,0,0-3.95,1.74,10.41,10.41,0,0,1,.6,3.64c-.23,3.89-1.48,9.72-2.14,14.73-.92,2.19-2.43,4.55-3.94,4.7-.86.09-1.14-.79-1.2-1.42-.39-3.7,2.64-8.59,2-13.09-.33-2.38-1.36-3.09-3.08-2.91a9.25,9.25,0,0,0-3.89,1.73,11.68,11.68,0,0,1,.57,2.89c.18,2-.42,4.34-.91,6.86h0L96.1,34c-.64,2.27-2.62,5.86-4.58,6.07-.87.09-1.14-.79-1.21-1.43-.34-3.11,2-6.12,2-11.23,0-4.22-4.77-5.08-8.4-4.49-.78.13-1.48.28-2.13.45v-.07c.16-4,2.83-5.43,4.68-5.44a6.72,6.72,0,0,1,1.75.36c1.69-1.67,1.08-4.74-4.12-4.6s-8.16,3.89-8.37,9.1c0,.73-.1,1.44-.19,2.14a9.23,9.23,0,0,1-3.67-.62s-1.36,6.3,2.5,5.77c-.69,1.75-5.34,12.94-11,13.59-2.18.25-2.81-1.83-2.95-4.12,3.91.92,8.88-2.95,9.36-9.33.28-3.75-2-6.28-5.92-5.83-6.69.78-9.49,8.48-9.75,13.95A19.08,19.08,0,0,1,52,41.82c-1.2-5.16-7.9-3.59-8.53-8.42a2.32,2.32,0,0,1,2-2.77c2.36-.07.7,3.83.7,3.83a3.51,3.51,0,0,0,3.16,1.44c2.21-.32,2.55-3.07,2.39-4.34-.5-3.77-3.91-5.23-7.43-4.71-4.75.7-7.62,4.78-7.25,8.16.66,6.16,8.12,3.49,8.2,9.37a2.11,2.11,0,0,1-1.83,2.34,1.33,1.33,0,0,1-1.31-1.4,6.28,6.28,0,0,1,.42-2.25,3.52,3.52,0,0,0-3.08-1.45,2.51,2.51,0,0,0-2.17,2c-.49.73-2.12,3-3.68,3.2-1,.11-1.23-.78-1.29-1.41-.39-3.7,3.21-16.14,2.59-20.64-.33-2.37-1.54-3.15-3.26-3a10.75,10.75,0,0,0-4.23,1.93,9.32,9.32,0,0,1,.45,2.5c0,.32,0,.71,0,1.17v.08c0,.28,0,.59,0,.92v.17a.76.76,0,0,0,0,.15C27.49,34,25.69,46.33,21.49,47c-.88.15-1.3-.39-1.45-1.69-.4-3.41,2-10.94,1.94-17-.09-6.73-4.38-8.74-9-8.09C6.75,21.1,1.46,28.17,2.91,37.4c1.12,7.11,7.84,3.32,7.84,3.32S9.19,39.16,9.14,35.2C9.08,30.31,10.48,24,13.87,24c1.74,0,2,2.34,2.05,3.11.07,6.09-3.22,12.55-2.36,19.88.38,3.27,2.41,7.36,6.5,6.81,3.47-.46,5.4-3.84,6.44-6.87v0c.35,4,2.21,5.66,5,5.37s4.87-2.59,6.13-4.89c.91,2.29,3,3.66,6.11,3.42h0l.2,0,.19,0,.11,0C49.44,50.16,53,46.56,55,43.6c1.29,3.21,4,5.66,7.9,4.87,4.67-.93,7.91-4.86,9.85-8.14,0,1-.08,2.05,0,3.16.06,2.41,1.84,3.14,3.57,3.09a6.41,6.41,0,0,0,3.14-.6s-.26-1.88-.3-3.25c-.12-5.18,1.38-10.37,2.19-15.22A10.29,10.29,0,0,1,83.42,27c1.34-.14,2.86.58,2.69,3.14-.23,3.55-1.88,6.07-1.6,10,.26,3.44,2.21,5.66,5,5.37,2.92-.31,5.15-2.72,6.55-5.09.66,2.83,2.36,4,4.72,3.77s4.36-2,5.63-4c.25,2.07,1.8,2.61,3.42,2.44a6.88,6.88,0,0,0,3.13-.84s-.19-1.87-.2-3.23c-.14-11.87,3.09-15.66,2.49-21.47" style="fill:#fff"/></g></g></g></svg>