<?xml version="1.0" encoding="utf-8"?>
<!-- Generator: Adobe Illustrator 22.1.0, SVG Export Plug-In . SVG Version: 6.00 Build 0)  -->
<svg version="1.1" id="Layer_1" xmlns="http://www.w3.org/2000/svg" xmlns:xlink="http://www.w3.org/1999/xlink" x="0px" y="0px"
	 viewBox="0 0 220 40" style="enable-background:new 0 0 220 40;" xml:space="preserve">
<style type="text/css">
	.st0{fill:#95BF46;}
	.st1{fill:#5F8E3E;}
	.st2{fill:#FFFFFF;}
	.st3{fill:#9F9F9F;}
</style>
<g>
	<g>
		<g>
			<path class="st0" d="M31.5,8.9c0-0.2-0.2-0.3-0.3-0.3c-0.1,0-2.8-0.2-2.8-0.2s-1.9-1.8-2.1-2.1s-0.6-0.1-0.8-0.1
				c0,0-0.4,0.1-1,0.3c-0.6-1.8-1.7-3.5-3.7-3.5c-0.1,0-0.1,0-0.2,0c-0.5-0.7-1.2-1-1.8-1c-4.5,0-6.7,5.6-7.3,8.5
				c-1.7,0.5-3,0.9-3.2,1c-1,0.3-1,0.3-1.1,1.3c-0.1,0.7-2.7,20.5-2.7,20.5l20,3.7l10.8-2.3C35.3,34.7,31.5,9.1,31.5,8.9z M23.4,6.9
				c-0.5,0.1-1.1,0.3-1.7,0.5c0-0.1,0-0.2,0-0.4c0-1.1-0.1-2-0.4-2.7C22.3,4.5,22.9,5.6,23.4,6.9z M20,4.6c0.3,0.7,0.5,1.7,0.5,3
				c0,0.1,0,0.1,0,0.2c-1.1,0.3-2.3,0.7-3.5,1.1C17.7,6.3,18.9,5,20,4.6z M18.7,3.3c0.2,0,0.4,0.1,0.6,0.2c-1.5,0.7-3,2.4-3.7,5.8
				c-1,0.3-1.9,0.6-2.8,0.9C13.6,7.6,15.5,3.3,18.7,3.3z"/>
			<path class="st1" d="M31.2,8.6c-0.1,0-2.8-0.2-2.8-0.2s-1.9-1.8-2.1-2.1c-0.1-0.1-0.2-0.1-0.3-0.1l-1.5,30.8l10.8-2.3
				c0,0-3.8-25.7-3.8-25.8C31.4,8.7,31.3,8.6,31.2,8.6z"/>
			<path class="st2" d="M20.8,14.6l-1.4,4c0,0-1.2-0.6-2.6-0.6c-2.1,0-2.2,1.3-2.2,1.6c0,1.8,4.7,2.5,4.7,6.7c0,3.3-2.1,5.5-5,5.5
				c-3.4,0-5.2-2.1-5.2-2.1l0.9-3c0,0,1.8,1.5,3.3,1.5c1,0,1.4-0.8,1.4-1.4c0-2.4-3.9-2.5-3.9-6.3c0-3.3,2.3-6.4,7.1-6.4
				C19.9,14.1,20.8,14.6,20.8,14.6z"/>
		</g>
		<path id="s_7_" class="st2" d="M47.9,22c-1.1-0.6-1.6-1.1-1.6-1.7c0-0.9,0.8-1.4,2-1.4c1.4,0,2.6,0.6,2.6,0.6l1-3
			c0,0-0.9-0.7-3.6-0.7c-3.7,0-6.3,2.1-6.3,5.1c0,1.7,1.2,3,2.8,3.9c1.3,0.7,1.7,1.3,1.7,2c0,0.8-0.6,1.5-1.8,1.5
			c-1.8,0-3.5-0.9-3.5-0.9l-1,3c0,0,1.6,1,4.2,1c3.8,0,6.6-1.9,6.6-5.3C50.9,24.3,49.5,23,47.9,22z"/>
		<path id="h_7_" class="st2" d="M63.1,15.7c-1.9,0-3.3,0.9-4.5,2.2l-0.1,0l1.6-8.5h-4.2l-4.1,21.7H56l1.4-7.4
			c0.6-2.8,2-4.5,3.3-4.5c1,0,1.3,0.6,1.3,1.6c0,0.6-0.1,1.3-0.2,1.9l-1.6,8.5h4.2l1.7-8.8c0.2-0.9,0.3-2,0.3-2.8
			C66.6,17.1,65.3,15.7,63.1,15.7z"/>
		<path id="o_7_" class="st2" d="M76.2,15.7c-5.1,0-8.5,4.6-8.5,9.8c0,3.3,2,5.9,5.9,5.9c5,0,8.4-4.5,8.4-9.8
			C81.9,18.6,80.2,15.7,76.2,15.7z M74.1,28.1c-1.5,0-2.1-1.2-2.1-2.8c0-2.4,1.3-6.4,3.6-6.4c1.5,0,2,1.3,2,2.6
			C77.6,24.1,76.3,28.1,74.1,28.1z"/>
		<path id="p_7_" class="st2" d="M92.8,15.7c-2.9,0-4.5,2.5-4.5,2.5h-0.1l0.2-2.3h-3.8c-0.2,1.5-0.5,3.9-0.9,5.6l-3,15.5h4.2
			l1.2-6.3h0.1c0,0,0.9,0.6,2.5,0.6c5,0,8.3-5.1,8.3-10.3C97.2,18.2,95.9,15.7,92.8,15.7z M88.7,28.2c-1.1,0-1.7-0.6-1.7-0.6l0.7-4
			c0.5-2.6,1.9-4.4,3.3-4.4c1.3,0,1.7,1.2,1.7,2.3C92.8,24.3,91.1,28.2,88.7,28.2z"/>
		<path id="dot_7_" class="st2" d="M103.3,9.6c-1.4,0-2.4,1.1-2.4,2.5c0,1.3,0.8,2.1,2,2.1h0.1c1.3,0,2.5-0.9,2.5-2.5
			C105.4,10.5,104.5,9.6,103.3,9.6z"/>
		<polygon id="i_7_" class="st2" points="97.3,31.1 101.6,31.1 104.5,16 100.2,16 		"/>
		<path id="f_7_" class="st2" d="M115.3,16h-3l0.1-0.7c0.2-1.5,1.1-2.7,2.5-2.7c0.7,0,1.4,0.2,1.4,0.2l0.8-3.3c0,0-0.7-0.4-2.3-0.4
			c-1.5,0-3,0.4-4.2,1.4c-1.5,1.2-2.1,3-2.5,4.8l-0.1,0.7h-2l-0.6,3.2h2l-2.2,11.9h4.2l2.3-11.9h2.9L115.3,16z"/>
		<path id="y_7_" class="st2" d="M125.5,16c0,0-2.7,6.7-3.8,10.4h-0.1c-0.1-1.2-1-10.4-1-10.4h-4.5l2.6,13.8c0.1,0.3,0,0.5-0.1,0.7
			c-0.5,1-1.3,1.9-2.3,2.6c-0.8,0.6-1.7,1-2.4,1.2l1.2,3.6c0.9-0.2,2.6-0.9,4.2-2.3c1.9-1.8,3.7-4.6,5.6-8.4l5.2-11.1L125.5,16z"/>
	</g>
	<g>
		<g>
			<path class="st3" d="M145.3,30.2c-1.1,0.6-2.7,1.1-4.5,1.1c-3.7,0-5.2-2.6-5.2-5.8c0-4.4,3-9.8,7.7-9.8c2.7,0,4,1.7,4,3.7
				c0,3.8-4.1,5-9.2,5c-0.1,0.6-0.1,2.1,0.2,2.9c0.5,1.3,1.6,2,3,2c1.6,0,2.8-0.5,3.6-1L145.3,30.2z M144.9,19.5
				c0-1.1-0.8-1.8-2-1.8c-2.1,0-3.8,2.2-4.5,4.8C141.9,22.5,144.9,21.9,144.9,19.5L144.9,19.5L144.9,19.5z"/>
			<path class="st3" d="M151.8,16.1l1.3,3.3c0.3,1,0.6,1.8,0.9,2.5h0.1c0.6-0.9,0.9-1.5,1.6-2.4l2.5-3.4h2.8l-5.9,7.4l3.1,7.6h-2.7
				l-1.3-3.4c-0.4-1-0.6-1.6-0.9-2.7h-0.1c-0.4,0.7-0.9,1.5-1.5,2.4l-2.7,3.7h-2.8l6.2-7.7l-3.1-7.3H151.8z"/>
			<path class="st3" d="M158.9,37.2l3-15.8c0.3-1.9,0.6-3.9,0.8-5.3h2.2l-0.4,2.7h0.1c1.3-1.9,3.1-3,5-3c2.9,0,4.1,2.5,4.1,5.1
				c0,5.1-3.4,10.6-8.2,10.6c-1.3,0-2.3-0.3-2.8-0.6h-0.1l-1.2,6.4H158.9z M163,28.7c0.6,0.5,1.4,0.7,2.4,0.7c3.3,0,5.7-5,5.7-8.4
				c0-1.6-0.6-3.2-2.5-3.2c-1.9,0-4.1,2.4-4.8,6.2L163,28.7z"/>
			<path class="st3" d="M184.9,30.2c-1.1,0.6-2.7,1.1-4.5,1.1c-3.7,0-5.2-2.6-5.2-5.8c0-4.4,3-9.8,7.7-9.8c2.7,0,4,1.7,4,3.7
				c0,3.8-4.1,5-9.2,5c-0.1,0.6-0.1,2.1,0.2,2.9c0.5,1.3,1.6,2,3,2c1.6,0,2.8-0.5,3.6-1L184.9,30.2z M184.5,19.5
				c0-1.1-0.8-1.8-2-1.8c-2.1,0-3.8,2.2-4.5,4.8C181.5,22.5,184.5,21.9,184.5,19.5L184.5,19.5L184.5,19.5z"/>
			<path class="st3" d="M187.5,31.1l1.9-9.8c0.4-2,0.6-3.9,0.7-5.2h2.2c-0.1,1-0.2,2-0.3,3.1h0.1c1-2,2.5-3.5,4.3-3.5
				c0.2,0,0.5,0,0.6,0l-0.5,2.5c-0.1,0-0.3,0-0.6,0c-2.2,0-4,2.7-4.6,5.8l-1.3,7H187.5z"/>
			<path class="st3" d="M203.8,12.5l-0.7,3.6h3.3L206,18h-3.4l-1.4,7.7c-0.1,0.8-0.3,1.6-0.3,2.2c0,0.9,0.4,1.4,1.3,1.4
				c0.4,0,0.8,0,1.1-0.1l-0.1,1.9c-0.5,0.1-1.2,0.2-1.9,0.2c-2.1,0-3-1.2-3-2.8c0-0.8,0.1-1.6,0.3-2.7l1.5-7.9h-2.1l0.4-1.9h2.1
				l0.5-2.7L203.8,12.5z"/>
			<path class="st3" d="M206.1,28.6c0.6,0.4,1.8,0.9,3,0.9c1.7,0,2.7-1.1,2.7-2.5c0-1.2-0.6-2-1.9-2.8c-1.5-0.9-2.5-2.3-2.5-3.8
				c0-2.6,2.1-4.6,5.2-4.6c1.2,0,2.3,0.3,2.9,0.7l-0.7,1.9c-0.5-0.3-1.3-0.6-2.3-0.6c-1.6,0-2.6,1-2.6,2.3c0,1.1,0.7,1.8,1.9,2.5
				c1.5,1,2.6,2.3,2.6,3.9c0,3.2-2.4,4.9-5.5,4.9c-1.5,0-2.8-0.5-3.5-1L206.1,28.6z"/>
		</g>
	</g>
</g>
</svg>
