<?xml version="1.0" encoding="utf-8"?>
<!-- Generator: Adobe Illustrator 22.1.0, SVG Export Plug-In . SVG Version: 6.00 Build 0)  -->
<svg version="1.1" id="Layer_1" xmlns="http://www.w3.org/2000/svg" xmlns:xlink="http://www.w3.org/1999/xlink" x="0px" y="0px"
	 viewBox="0 0 130 40" style="enable-background:new 0 0 130 40;" xml:space="preserve">
<style type="text/css">
	.st0{fill:#E6D73E;}
</style>
<g>
	<g>
		<polygon class="st0" points="117,9 120.2,15.6 127.5,16.6 122.2,21.7 123.5,29 117,25.5 110.5,29 111.8,21.7 106.5,16.6 
			113.8,15.6 		"/>
	</g>
	<g>
		<polygon class="st0" points="91,9 94.2,15.6 101.5,16.6 96.2,21.7 97.5,29 91,25.5 84.5,29 85.8,21.7 80.5,16.6 87.8,15.6 		"/>
	</g>
	<g>
		<polygon class="st0" points="65,9 68.2,15.6 75.5,16.6 70.2,21.7 71.5,29 65,25.5 58.5,29 59.8,21.7 54.5,16.6 61.8,15.6 		"/>
	</g>
	<g>
		<polygon class="st0" points="39,9 42.2,15.6 49.5,16.6 44.2,21.7 45.5,29 39,25.5 32.5,29 33.8,21.7 28.5,16.6 35.8,15.6 		"/>
	</g>
	<g>
		<polygon class="st0" points="13,9 16.2,15.6 23.5,16.6 18.2,21.7 19.5,29 13,25.5 6.5,29 7.8,21.7 2.5,16.6 9.8,15.6 		"/>
	</g>
</g>
</svg>
